<svg width="370" height="370" viewBox="0 0 370 370" fill="none" xmlns="http://www.w3.org/2000/svg">
<rect width="370" height="370" rx="45" fill="#0047AB"/>
<path d="M144.103 146.287C133.865 156.571 127.516 170.719 127.536 186.345C127.564 208.435 140.23 227.547 158.682 236.87L158.788 318.909L165.28 325.371L165.17 239.65C167.334 240.421 169.553 241.073 171.829 241.58L171.946 332.006L185.001 345.002L196.812 333.136L196.694 241.546C198.952 241.038 201.177 240.392 203.356 239.612L203.461 326.457L210.258 319.629L210.151 236.662C228.528 227.202 241.108 208.026 241.08 185.974C241.053 165.118 229.721 147.005 212.934 137.193L213.01 190.22L184.334 206.956L155.609 190.416L155.539 137.381C151.368 139.857 147.525 142.849 144.102 146.286L144.103 146.287Z" fill="white"/>
<path d="M59.6172 75.7031V91.8945C59.6172 94.7331 59.1224 97.181 58.1328 99.2383C57.1562 101.283 55.75 102.852 53.9141 103.945C52.0781 105.039 49.8776 105.586 47.3125 105.586C44.7604 105.586 42.5664 105.039 40.7305 103.945C38.8945 102.852 37.4818 101.283 36.4922 99.2383C35.5156 97.181 35.0273 94.7331 35.0273 91.8945V75.7031H38.4648V91.6211C38.4648 93.9258 38.8164 95.8919 39.5195 97.5195C40.2227 99.1471 41.2318 100.391 42.5469 101.25C43.875 102.109 45.4635 102.539 47.3125 102.539C49.1745 102.539 50.763 102.109 52.0781 101.25C53.4062 100.391 54.4219 99.1471 55.125 97.5195C55.8281 95.8919 56.1797 93.9258 56.1797 91.6211V75.7031H59.6172ZM65.6914 105V75.7031H74.1289C77.7227 75.7031 80.8086 76.2891 83.3867 77.4609C85.9779 78.6328 87.9635 80.3125 89.3438 82.5C90.737 84.6875 91.4336 87.3047 91.4336 90.3516C91.4336 93.3854 90.737 96.0026 89.3438 98.2031C87.9635 100.391 85.9779 102.07 83.3867 103.242C80.8086 104.414 77.7227 105 74.1289 105H65.6914ZM69.1289 101.953H74.2852C77.1628 101.953 79.6172 101.497 81.6484 100.586C83.6797 99.6745 85.2292 98.3529 86.2969 96.6211C87.3776 94.8893 87.918 92.7995 87.918 90.3516C87.918 87.9036 87.3776 85.8138 86.2969 84.082C85.2292 82.3503 83.6797 81.0286 81.6484 80.1172C79.6172 79.2057 77.1628 78.75 74.2852 78.75H69.1289V101.953ZM107.605 105H104.168V92.4805L92.8008 75.7031H96.9805L105.887 89.6094L114.832 75.7031H118.992L107.605 92.5195V105ZM134.637 105.586C132.436 105.586 130.405 105.208 128.543 104.453C126.694 103.698 125.086 102.637 123.719 101.27C122.352 99.8893 121.29 98.2747 120.535 96.4258C119.78 94.5638 119.402 92.5391 119.402 90.3516C119.402 88.151 119.78 86.1263 120.535 84.2773C121.29 82.4154 122.352 80.8008 123.719 79.4336C125.086 78.0664 126.694 77.0052 128.543 76.25C130.405 75.4948 132.436 75.1172 134.637 75.1172C136.837 75.1172 138.862 75.4948 140.711 76.25C142.56 77.0052 144.168 78.0664 145.535 79.4336C146.902 80.8008 147.964 82.4154 148.719 84.2773C149.474 86.1263 149.852 88.151 149.852 90.3516C149.852 92.5391 149.474 94.5638 148.719 96.4258C147.964 98.2747 146.902 99.8893 145.535 101.27C144.168 102.637 142.56 103.698 140.711 104.453C138.862 105.208 136.837 105.586 134.637 105.586ZM134.637 102.539C136.316 102.539 137.866 102.233 139.285 101.621C140.717 101.009 141.961 100.156 143.016 99.0625C144.07 97.9557 144.884 96.6667 145.457 95.1953C146.043 93.7109 146.336 92.0964 146.336 90.3516C146.336 88.6068 146.043 86.9922 145.457 85.5078C144.884 84.0234 144.07 82.7344 143.016 81.6406C141.961 80.5339 140.717 79.681 139.285 79.082C137.866 78.4701 136.316 78.1641 134.637 78.1641C132.957 78.1641 131.401 78.4701 129.969 79.082C128.549 79.681 127.312 80.5339 126.258 81.6406C125.203 82.7344 124.383 84.0234 123.797 85.5078C123.211 86.9922 122.918 88.6068 122.918 90.3516C122.918 92.0964 123.211 93.7109 123.797 95.1953C124.383 96.6797 125.203 97.9753 126.258 99.082C127.312 100.176 128.549 101.029 129.969 101.641C131.401 102.24 132.957 102.539 134.637 102.539ZM176.746 81.4258C175.665 80.3711 174.396 79.5638 172.938 79.0039C171.479 78.444 169.936 78.1641 168.309 78.1641C166.616 78.1641 165.06 78.4635 163.641 79.0625C162.221 79.6484 160.991 80.4883 159.949 81.582C158.921 82.6628 158.12 83.9453 157.547 85.4297C156.987 86.9141 156.707 88.5482 156.707 90.332C156.707 92.1029 156.987 93.737 157.547 95.2344C158.107 96.7188 158.895 98.0078 159.91 99.1016C160.926 100.195 162.13 101.042 163.523 101.641C164.917 102.24 166.447 102.539 168.113 102.539C169.65 102.539 171.062 102.285 172.352 101.777C173.654 101.257 174.793 100.527 175.77 99.5898C176.759 98.6393 177.553 97.513 178.152 96.2109C178.764 94.8958 179.142 93.4505 179.285 91.875H168.543V89.1602H182.332L182.43 90.4297C182.43 92.6562 182.078 94.694 181.375 96.543C180.685 98.3919 179.702 99.9935 178.426 101.348C177.15 102.702 175.639 103.75 173.895 104.492C172.15 105.221 170.229 105.586 168.133 105.586C165.984 105.586 163.999 105.208 162.176 104.453C160.366 103.685 158.784 102.617 157.43 101.25C156.089 99.8828 155.047 98.2812 154.305 96.4453C153.562 94.5964 153.191 92.5846 153.191 90.4102C153.191 88.2227 153.569 86.1979 154.324 84.3359C155.079 82.474 156.134 80.8529 157.488 79.4727C158.842 78.0924 160.438 77.0247 162.273 76.2695C164.109 75.5013 166.108 75.1172 168.27 75.1172C170.314 75.1172 172.254 75.4688 174.09 76.1719C175.939 76.875 177.579 77.8841 179.012 79.1992L176.746 81.4258ZM196.902 105V75.7031H207.293C210.092 75.7031 212.293 76.3477 213.895 77.6367C215.496 78.9258 216.297 80.6966 216.297 82.9492C216.297 84.5508 215.9 85.9505 215.105 87.1484C214.311 88.3333 213.25 89.1927 211.922 89.7266C213.706 90.1693 215.105 91.0221 216.121 92.2852C217.15 93.5352 217.664 95.0716 217.664 96.8945C217.664 98.5091 217.26 99.9284 216.453 101.152C215.659 102.363 214.546 103.307 213.113 103.984C211.681 104.661 210.008 105 208.094 105H196.902ZM200.34 88.6328H207.215C208.934 88.6328 210.307 88.1771 211.336 87.2656C212.378 86.3542 212.898 85.1497 212.898 83.6523C212.898 82.1419 212.371 80.9505 211.316 80.0781C210.262 79.1927 208.823 78.75 207 78.75H200.34V88.6328ZM200.34 101.953H207.352C208.706 101.953 209.891 101.725 210.906 101.27C211.922 100.801 212.716 100.156 213.289 99.3359C213.862 98.5026 214.148 97.5456 214.148 96.4648C214.148 95.4102 213.875 94.4922 213.328 93.7109C212.794 92.9297 212.033 92.3307 211.043 91.9141C210.066 91.4844 208.914 91.2695 207.586 91.2695H200.34V101.953ZM246.961 75.7031V91.8945C246.961 94.7331 246.466 97.181 245.477 99.2383C244.5 101.283 243.094 102.852 241.258 103.945C239.422 105.039 237.221 105.586 234.656 105.586C232.104 105.586 229.91 105.039 228.074 103.945C226.238 102.852 224.826 101.283 223.836 99.2383C222.859 97.181 222.371 94.7331 222.371 91.8945V75.7031H225.809V91.6211C225.809 93.9258 226.16 95.8919 226.863 97.5195C227.566 99.1471 228.576 100.391 229.891 101.25C231.219 102.109 232.807 102.539 234.656 102.539C236.518 102.539 238.107 102.109 239.422 101.25C240.75 100.391 241.766 99.1471 242.469 97.5195C243.172 95.8919 243.523 93.9258 243.523 91.6211V75.7031H246.961ZM253.035 105V75.7031H261.473C265.066 75.7031 268.152 76.2891 270.73 77.4609C273.322 78.6328 275.307 80.3125 276.688 82.5C278.081 84.6875 278.777 87.3047 278.777 90.3516C278.777 93.3854 278.081 96.0026 276.688 98.2031C275.307 100.391 273.322 102.07 270.73 103.242C268.152 104.414 265.066 105 261.473 105H253.035ZM256.473 101.953H261.629C264.507 101.953 266.961 101.497 268.992 100.586C271.023 99.6745 272.573 98.3529 273.641 96.6211C274.721 94.8893 275.262 92.7995 275.262 90.3516C275.262 87.9036 274.721 85.8138 273.641 84.082C272.573 82.3503 271.023 81.0286 268.992 80.1172C266.961 79.2057 264.507 78.75 261.629 78.75H256.473V101.953ZM283.465 105V75.7031H291.902C295.496 75.7031 298.582 76.2891 301.16 77.4609C303.751 78.6328 305.737 80.3125 307.117 82.5C308.51 84.6875 309.207 87.3047 309.207 90.3516C309.207 93.3854 308.51 96.0026 307.117 98.2031C305.737 100.391 303.751 102.07 301.16 103.242C298.582 104.414 295.496 105 291.902 105H283.465ZM286.902 101.953H292.059C294.936 101.953 297.391 101.497 299.422 100.586C301.453 99.6745 303.003 98.3529 304.07 96.6211C305.151 94.8893 305.691 92.7995 305.691 90.3516C305.691 87.9036 305.151 85.8138 304.07 84.082C303.003 82.3503 301.453 81.0286 299.422 80.1172C297.391 79.2057 294.936 78.75 292.059 78.75H286.902V101.953ZM325.379 105H321.941V92.4805L310.574 75.7031H314.754L323.66 89.6094L332.605 75.7031H336.766L325.379 92.5195V105Z" fill="white"/>
</svg>
